<?xml version="1.0" encoding="UTF-8"?>
<svg xmlns="http://www.w3.org/2000/svg" xmlns:xlink="http://www.w3.org/1999/xlink" width="33px" height="31px" viewBox="0 0 33 31" version="1.1">
<defs>
<filter id="alpha" filterUnits="objectBoundingBox" x="0%" y="0%" width="100%" height="100%">
  <feColorMatrix type="matrix" in="SourceGraphic" values="0 0 0 0 1 0 0 0 0 1 0 0 0 0 1 0 0 0 1 0"/>
</filter>
<mask id="mask0">
  <g filter="url(#alpha)">
<rect x="0" y="0" width="33" height="31" style="fill:rgb(0%,0%,0%);fill-opacity:0.5;stroke:none;"/>
  </g>
</mask>
<clipPath id="clip1">
  <rect x="0" y="0" width="33" height="31"/>
</clipPath>
<g id="surface5" clip-path="url(#clip1)">
<path style=" stroke:none;fill-rule:nonzero;fill:rgb(12.941177%,12.941177%,12.941177%);fill-opacity:1;" d="M 24.351562 11.527344 C 24.351562 11.527344 17.039062 15.039062 16.921875 15.335938 C 16.800781 15.632812 22.660156 12.988281 23.34375 12.65625 C 24.121094 12.28125 30.214844 9.21875 30.214844 8.882812 C 30.21875 8.605469 24.351562 11.527344 24.351562 11.527344 Z M 24.351562 11.527344 "/>
</g>
<mask id="mask1">
  <g filter="url(#alpha)">
<rect x="0" y="0" width="33" height="31" style="fill:rgb(0%,0%,0%);fill-opacity:0.5;stroke:none;"/>
  </g>
</mask>
<clipPath id="clip2">
  <rect x="0" y="0" width="33" height="31"/>
</clipPath>
<g id="surface8" clip-path="url(#clip2)">
<path style=" stroke:none;fill-rule:nonzero;fill:rgb(12.941177%,12.941177%,12.941177%);fill-opacity:1;" d="M 3.300781 22.488281 C 4.253906 22.9375 5.199219 23.402344 6.375 23.96875 L 6.375 23.535156 C 5.203125 22.972656 4.257812 22.511719 3.300781 22.054688 Z M 3.300781 22.488281 "/>
<path style=" stroke:none;fill-rule:nonzero;fill:rgb(12.941177%,12.941177%,12.941177%);fill-opacity:1;" d="M 5.304688 22.683594 C 5.574219 22.8125 5.707031 22.878906 5.960938 23 C 5.964844 22.246094 5.964844 21.871094 5.964844 21.121094 C 5.714844 21 5.582031 20.9375 5.316406 20.808594 C 5.3125 21.558594 5.308594 21.933594 5.304688 22.683594 Z M 5.304688 22.683594 "/>
<path style=" stroke:none;fill-rule:nonzero;fill:rgb(12.941177%,12.941177%,12.941177%);fill-opacity:1;" d="M 3.640625 21.878906 C 3.863281 21.984375 3.984375 22.046875 4.238281 22.167969 L 4.25 20.296875 C 3.996094 20.175781 3.871094 20.117188 3.648438 20.003906 C 3.644531 20.753906 3.644531 21.132812 3.640625 21.878906 Z M 3.640625 21.878906 "/>
<path style=" stroke:none;fill-rule:nonzero;fill:rgb(12.941177%,12.941177%,12.941177%);fill-opacity:1;" d="M 4.886719 20.824219 C 5.496094 21.117188 5.820312 21.277344 6.359375 21.53125 C 6.09375 21.074219 5.945312 20.84375 5.652344 20.371094 C 5.347656 20.558594 5.191406 20.648438 4.886719 20.824219 Z M 4.886719 20.824219 "/>
<path style=" stroke:none;fill-rule:nonzero;fill:rgb(12.941177%,12.941177%,12.941177%);fill-opacity:1;" d="M 3.300781 20.0625 C 3.757812 20.285156 4.066406 20.433594 4.667969 20.722656 C 4.371094 20.25 4.21875 20.015625 3.945312 19.554688 C 3.664062 19.746094 3.53125 19.84375 3.300781 20.0625 Z M 3.300781 20.0625 "/>
</g>
<mask id="mask2">
  <g filter="url(#alpha)">
<rect x="0" y="0" width="33" height="31" style="fill:rgb(0%,0%,0%);fill-opacity:0.5;stroke:none;"/>
  </g>
</mask>
<clipPath id="clip3">
  <rect x="0" y="0" width="33" height="31"/>
</clipPath>
<g id="surface11" clip-path="url(#clip3)">
<path style=" stroke:none;fill-rule:nonzero;fill:rgb(12.941177%,12.941177%,12.941177%);fill-opacity:1;" d="M 8.199219 24.558594 C 8.414062 24.660156 8.527344 24.71875 8.738281 24.820312 C 8.722656 23.929688 8.714844 23.484375 8.699219 22.59375 C 8.492188 22.492188 8.390625 22.441406 8.183594 22.34375 C 8.191406 23.226562 8.191406 23.671875 8.199219 24.558594 Z M 8.199219 24.558594 "/>
<path style=" stroke:none;fill-rule:nonzero;fill:rgb(12.941177%,12.941177%,12.941177%);fill-opacity:1;" d="M 7.414062 24.402344 C 8.199219 24.789062 8.808594 25.078125 9.558594 25.457031 C 9.554688 25.203125 9.34375 24.894531 9.0625 24.75 C 8.617188 24.53125 8.367188 24.410156 7.917969 24.191406 C 7.628906 24.050781 7.414062 24.152344 7.414062 24.402344 Z M 7.414062 24.402344 "/>
<path style=" stroke:none;fill-rule:nonzero;fill:rgb(12.941177%,12.941177%,12.941177%);fill-opacity:1;" d="M 8.90625 21.882812 L 9.238281 22.539062 C 9.132812 22.746094 9.082031 22.851562 8.972656 23.054688 C 9.066406 23.046875 9.109375 23.042969 9.203125 23.035156 C 9.328125 22.882812 9.390625 22.804688 9.507812 22.648438 C 9.398438 22.410156 9.34375 22.289062 9.230469 22.046875 C 9.542969 22.210938 9.699219 22.292969 9.984375 22.449219 C 9.984375 23.316406 9.382812 23.699219 8.472656 23.253906 C 7.566406 22.8125 6.964844 21.820312 6.964844 20.953125 C 7.640625 21.269531 8.09375 21.476562 8.90625 21.882812 Z M 8.90625 21.882812 "/>
</g>
</defs>
<g id="surface1">
<path style=" stroke:none;fill-rule:nonzero;fill:rgb(87.058824%,65.098041%,42.352942%);fill-opacity:1;" d="M 16.125 1.171875 L 2.675781 7.683594 C 2.382812 7.847656 2.296875 8.089844 2.300781 8.441406 L 2.324219 8.878906 L 16.523438 15.71875 L 30.6875 8.988281 C 30.6875 8.988281 30.703125 8.917969 30.703125 8.683594 C 30.703125 8.683594 30.691406 8.371094 30.617188 8.226562 C 30.53125 8.058594 30.359375 7.914062 30.242188 7.824219 C 29.941406 7.585938 29.640625 7.378906 29.128906 7.109375 C 21.773438 3.203125 16.9375 1.1875 16.9375 1.1875 C 16.625 1.082031 16.367188 1.042969 16.125 1.171875 Z M 16.125 1.171875 "/>
<path style=" stroke:none;fill-rule:nonzero;fill:rgb(70.19608%,50.980395%,31.764707%);fill-opacity:1;" d="M 2.511719 23.289062 C 3.292969 23.777344 4.726562 24.414062 6.171875 25.152344 C 9.535156 26.859375 13.78125 28.9375 15.898438 29.753906 C 16.183594 29.867188 16.351562 29.917969 16.550781 29.929688 C 16.699219 29.9375 16.941406 29.84375 16.941406 29.84375 C 16.941406 29.84375 16.546875 16.476562 16.523438 15.714844 C 16.5 14.96875 16.167969 14.722656 15.875 14.542969 C 15.414062 14.265625 14.417969 13.835938 14.417969 13.835938 C 14.417969 13.835938 10.933594 12.207031 7.453125 10.492188 C 5.796875 9.679688 4.402344 8.84375 2.898438 8.15625 C 2.621094 8.03125 2.296875 8.1875 2.296875 8.476562 L 2.296875 22.960938 C 2.296875 23.097656 2.386719 23.214844 2.511719 23.289062 Z M 2.511719 23.289062 "/>
<path style=" stroke:none;fill-rule:nonzero;fill:rgb(58.823532%,38.431373%,22.352941%);fill-opacity:1;" d="M 30.3125 23.375 L 16.96875 29.835938 C 16.753906 29.941406 16.5 29.796875 16.5 29.570312 L 16.523438 15.71875 C 16.523438 15.585938 16.480469 15.292969 16.433594 15.179688 C 16.3125 14.839844 16.578125 14.703125 16.695312 14.648438 L 29.933594 8.242188 C 30.28125 8.074219 30.703125 8.3125 30.703125 8.683594 L 30.703125 22.777344 C 30.703125 23.027344 30.554688 23.257812 30.3125 23.375 Z M 30.3125 23.375 "/>
<use xlink:href="#surface5" mask="url(#mask0)"/>
<use xlink:href="#surface8" mask="url(#mask1)"/>
<use xlink:href="#surface11" mask="url(#mask2)"/>
<path style=" stroke:none;fill-rule:nonzero;fill:rgb(100%,87.843138%,69.803923%);fill-opacity:1;" d="M 25.972656 10.046875 C 25.84375 9.957031 12 3.164062 12 3.164062 L 7.707031 5.25 L 21.898438 12.125 L 21.90625 12.132812 L 26.058594 10.136719 C 26.058594 10.136719 26.050781 10.117188 26.027344 10.09375 C 26.011719 10.078125 25.980469 10.054688 25.972656 10.046875 Z M 25.972656 10.046875 "/>
<path style=" stroke:none;fill-rule:nonzero;fill:rgb(74.901962%,62.352943%,52.156866%);fill-opacity:1;" d="M 26.039062 10.105469 C 23.6875 11.195312 21.898438 12.125 21.898438 12.125 C 21.957031 12.183594 21.960938 12.253906 21.960938 12.292969 C 21.953125 12.570312 21.949219 12.792969 21.941406 13.074219 C 21.902344 14.515625 21.882812 15.957031 21.832031 17.398438 C 22.003906 17.300781 22.214844 17.515625 22.371094 17.398438 C 22.613281 17.21875 23.128906 16.429688 23.207031 16.40625 C 23.308594 16.375 23.417969 16.398438 23.523438 16.394531 C 23.988281 16.371094 25.027344 15.480469 25.25 15.441406 C 25.464844 15.402344 26.171875 15.527344 26.171875 15.527344 C 26.171875 15.527344 26.121094 11.132812 26.101562 10.394531 C 26.097656 10.132812 26.039062 10.105469 26.039062 10.105469 Z M 26.039062 10.105469 "/>
</g>
</svg>
